<?xml version="1.0" standalone="no"?>
<!DOCTYPE svg PUBLIC "-//W3C//DTD SVG 20010904//EN"
 "http://www.w3.org/TR/2001/REC-SVG-20010904/DTD/svg10.dtd">
<svg version="1.0" xmlns="http://www.w3.org/2000/svg"
 width="1024.000000pt" height="1024.000000pt" viewBox="0 0 1024.000000 1024.000000"
 preserveAspectRatio="xMidYMid meet">

<g transform="translate(0.000000,1024.000000) scale(0.100000,-0.100000)"
fill="#003932" stroke="none">
<path d="M5182 8004 c-151 -33 -266 -98 -384 -216 -71 -72 -95 -104 -133 -180
-61 -124 -78 -211 -72 -353 8 -163 32 -226 176 -470 163 -275 195 -477 121
-767 -16 -62 -27 -114 -25 -116 8 -8 120 50 180 93 129 92 237 246 270 386 19
84 19 248 0 324 -19 74 -60 162 -124 269 -120 200 -156 303 -155 451 1 197 68
351 226 520 l70 75 -44 -1 c-23 -1 -71 -7 -106 -15z"/>
<path d="M5517 7720 c-134 -129 -162 -186 -162 -320 1 -140 35 -215 174 -381
31 -37 70 -93 86 -126 30 -58 30 -59 33 -255 2 -123 7 -198 13 -198 38 0 192
147 228 218 50 98 64 224 35 323 -24 81 -65 147 -155 245 -46 52 -93 116 -112
154 -32 64 -32 66 -37 250 l-5 185 -98 -95z"/>
<path d="M4170 7449 c-189 -144 -263 -277 -264 -469 0 -148 40 -236 192 -420
98 -118 147 -196 167 -265 9 -31 17 -116 20 -224 2 -96 6 -176 9 -178 2 -3 54
44 115 103 141 135 182 208 189 335 9 155 -28 249 -173 445 -162 219 -179 271
-173 547 2 114 -1 177 -7 177 -5 -1 -39 -23 -75 -51z"/>
<path d="M2591 5620 c-3 -8 -6 -157 -6 -330 0 -287 2 -327 23 -445 80 -440
261 -825 554 -1175 167 -199 370 -375 624 -538 l111 -72 938 0 938 0 46 27
c176 103 444 321 593 484 165 180 284 357 404 603 113 231 183 465 225 753 19
129 21 175 16 363 -3 118 -12 243 -19 278 l-13 63 -2214 2 c-1959 2 -2214 0
-2220 -13z m4100 -273 c19 -12 45 -42 57 -67 23 -43 24 -52 18 -192 -16 -394
-121 -726 -329 -1038 -98 -148 -160 -221 -303 -359 -145 -140 -278 -233 -469
-326 -235 -115 -403 -157 -474 -117 -63 34 -89 119 -56 182 23 44 62 66 196
110 352 115 649 339 850 639 200 299 299 625 299 986 0 76 4 114 15 136 35 67
131 90 196 46z"/>
<path d="M7328 5453 c9 -58 11 -132 8 -216 l-5 -128 28 -17 c74 -45 181 -163
222 -244 86 -169 75 -380 -28 -558 -59 -102 -180 -216 -288 -272 -80 -41 -221
-88 -264 -88 -9 0 -22 -13 -29 -30 -27 -61 -139 -238 -202 -319 -109 -139
-106 -125 -25 -117 106 11 298 54 410 93 395 136 661 371 793 701 90 223 94
453 13 683 -85 239 -299 460 -546 562 -111 46 -103 50 -87 -50z"/>
<path d="M2940 2688 c91 -67 214 -157 273 -200 l109 -78 1532 0 1531 0 175
131 c96 73 198 151 225 174 28 24 68 54 89 69 l39 26 -2069 0 -2068 0 164
-122z"/>
</g>
</svg>
